<svg xmlns="http://www.w3.org/2000/svg"
    xmlns:xlink="http://www.w3.org/1999/xlink" aria-hidden="true" role="img" width="257.40000000000003" height="76.89317509747714" viewBox="0 0 374.6179775280899 111.90973481247154" class="looka-1j8o68f">
    <defs id="SvgjsDefs9328">
        <linearGradient id="SvgjsLinearGradient9337">
            <stop id="SvgjsStop9338" stop-color="#ef4136" offset="0"></stop>
            <stop id="SvgjsStop9339" stop-color="#fbb040" offset="1"></stop>
        </linearGradient>
    </defs>
    <g id="SvgjsG9329" featurekey="symbolContainer" transform="matrix(1.9899188038835454,0,0,1.9899188038835454,0.000014641918375989454,0.008305016933000434)" fill="url(#SvgjsLinearGradient9337)">
        <path xmlns="http://www.w3.org/2000/svg" d="M23.11 55.78L1.69 43.41A3.39 3.39 0 0 1 0 40.48V15.75a3.39 3.39 0 0 1 1.69-2.94L23.11.45a3.39 3.39 0 0 1 3.39 0l21.41 12.37a3.39 3.39 0 0 1 1.69 2.94v24.72a3.39 3.39 0 0 1-1.69 2.94L26.5 55.78a3.39 3.39 0 0 1-3.39 0z"></path>
    </g>
    <g id="SvgjsG9330" featurekey="symbolFeature-0" transform="matrix(1.02523569698099,0,0,1.02523569698099,1.8761026219844466,7.401948825072068)" fill="#000000">
        <path xmlns="http://www.w3.org/2000/svg" d="M41.497,83.816h-8.908c0,0-2.202-5.645-3.444-17.814c-1.188-11.639-1.188-26.84-1.188-26.84s0.725-1.937,1.667-1.896  s1.064,2.015,1.064,2.015s-2.11,12.523,2.494,31.71C35.321,79.897,41.497,83.816,41.497,83.816z"></path>
        <path xmlns="http://www.w3.org/2000/svg" d="M64.312,41.977c0-1.836-7.416-12.487-15.843-12.487c-8.429,0-17.53,8.093-17.53,8.093s6.892-2.494,15.32-2.494  S64.312,43.814,64.312,41.977z"></path>
        <path xmlns="http://www.w3.org/2000/svg" d="M61.24,22.38c-0.996-1.543-13-6.478-20.083-1.913c-7.085,4.567-10.35,16.3-10.35,16.3s4.441-5.83,11.526-10.396  C49.418,21.805,62.234,23.924,61.24,22.38z"></path>
        <path xmlns="http://www.w3.org/2000/svg" d="M50.55,11.682c-1.561-0.956-14.317-0.459-18.523,6.409c-4.207,6.869-1.87,18.5-1.87,18.5s1.32-6.915,5.527-13.784  C39.89,15.939,52.111,12.639,50.55,11.682z"></path>
        <path xmlns="http://www.w3.org/2000/svg" d="M1.027,48.326C0.634,46.772,4.625,36.17,11.754,34.363c7.132-1.808,16.568,3.088,16.568,3.088s-6.366-0.633-13.498,1.175  C7.693,40.433,1.421,49.88,1.027,48.326z"></path>
        <path xmlns="http://www.w3.org/2000/svg" d="M0.139,31.186c0.512-1.52,9.61-8.269,16.582-5.925c6.974,2.345,12.253,11.572,12.253,11.572s-5.008-3.981-11.982-6.325  C10.019,28.164-0.372,32.705,0.139,31.186z"></path>
        <path xmlns="http://www.w3.org/2000/svg" d="M7.659,19.351c1.099-1.23,11.695-3.846,16.491,1.292c4.796,5.139,5.131,16.112,5.131,16.112s-2.429-5.874-7.226-11.013  C17.258,20.604,6.559,20.582,7.659,19.351z"></path>
        <path xmlns="http://www.w3.org/2000/svg" d="M58.333,83.573l7.063,0.243c0,0,1.9-4.416,3.218-14.033c1.26-9.196,1.675-21.251,1.675-21.251s-0.521-1.556-1.271-1.549  s-0.898,1.569-0.898,1.569s1.332,9.988-2.845,25.077C63.338,80.634,58.333,83.573,58.333,83.573z"></path>
        <path xmlns="http://www.w3.org/2000/svg" d="M41.497,48.591c0.05-1.456,6.222-9.7,12.904-9.469c6.686,0.23,13.681,6.896,13.681,6.896S62.684,43.852,56,43.622  S41.446,50.047,41.497,48.591z"></path>
        <path xmlns="http://www.w3.org/2000/svg" d="M49.19,27.492c1.129-0.915,11.213-1.854,15.239,3.109c4.024,4.965,3.398,14.357,3.398,14.357s-1.759-5.302-5.785-10.266  C58.019,29.729,48.062,28.407,49.19,27.492z"></path>
        <path xmlns="http://www.w3.org/2000/svg" d="M90.995,55.353c0.354-1.222-2.521-9.738-8.125-11.366c-5.606-1.628-13.223,1.996-13.223,1.996s5.065-0.328,10.672,1.3  C85.925,48.911,90.64,56.573,90.995,55.353z"></path>
        <path xmlns="http://www.w3.org/2000/svg" d="M92.168,41.785c-0.364-1.219-7.395-6.82-12.987-5.151c-5.595,1.668-10.033,8.842-10.033,8.842s4.081-3.02,9.675-4.688  S92.53,43.003,92.168,41.785z"></path>
        <path xmlns="http://www.w3.org/2000/svg" d="M86.528,32.194c-0.838-1.005-9.169-3.369-13.112,0.575c-3.943,3.944-4.51,12.637-4.51,12.637s2.087-4.591,6.031-8.536  C78.882,32.926,87.366,33.201,86.528,32.194z"></path>
    </g>
    <g id="SvgjsG9331" featurekey="nameFeature-0" transform="matrix(1.8289258435170395,0,0,1.8289258435170395,116.0737196968925,-4.997172381804164)" fill="#ffbb00">
        <path d="M14.2 40 l-12.6 -31.2 l8.72 0 l7.84 20.96 l7.88 -20.96 l8.72 0 l-12.64 31.2 l-7.92 0 z M44.491 40 l0 -31.2 l8 0 l0 31.2 l-8 0 z M75.502 40.6 c-3.88 0 -7.04 -0.84 -9.52 -2.56 s-3.72 -4.04 -3.72 -7.04 l0 -0.36 l-0.04 -1.6 l7.84 0 l0 1.8 c0 0.68 0.48 1.32 1.4 1.92 s2.2 0.92 3.88 0.92 c1.4 0 2.4 -0.2 3.04 -0.56 c0.6 -0.36 0.92 -0.84 0.92 -1.36 c0 -0.64 -0.4 -1.2 -1.16 -1.68 c-0.8 -0.48 -2.2 -1.04 -4.16 -1.72 c-1.24 -0.44 -2.28 -0.8 -3.12 -1.12 s-1.84 -0.8 -3 -1.44 c-1.16 -0.6 -2.12 -1.28 -2.8 -1.96 s-1.28 -1.52 -1.8 -2.56 s-0.76 -2.16 -0.76 -3.4 c0 -2.92 1.12 -5.28 3.4 -7.04 s5.2 -2.64 8.8 -2.64 c3.72 0 6.76 0.92 9.16 2.76 s3.6 4.28 3.6 7.32 l0 1.96 l-7.8 0 l0 -1.8 c0 -0.84 -0.4 -1.64 -1.24 -2.32 s-2.04 -1 -3.56 -1 c-1.24 0 -2.2 0.2 -2.84 0.6 c-0.64 0.44 -0.96 0.92 -0.96 1.52 s0.36 1.08 1.08 1.48 c0.72 0.44 2.08 1 4.08 1.68 l2.04 0.72 l2.16 0.88 c0.92 0.44 1.68 0.8 2.24 1.16 s1.2 0.84 1.96 1.44 s1.32 1.24 1.76 1.84 c0.4 0.6 0.76 1.36 1.08 2.2 c0.28 0.84 0.44 1.76 0.44 2.68 c0 2.96 -1.16 5.24 -3.44 6.84 c-2.28 1.64 -5.28 2.44 -8.96 2.44 z M97.633 40 l0 -31.2 l13.76 0 c3.92 0 6.96 1 9.08 3 c2.12 2.04 3.16 4.56 3.16 7.48 c0 3.08 -1.04 5.64 -3.16 7.64 s-5.12 3.04 -9.08 3.04 l-5.76 0 l0 10.04 l-8 0 z M105.633 23.56 l5.32 0 c3.08 0 4.6 -1.4 4.6 -4.24 c0 -1.2 -0.36 -2.16 -1.12 -2.96 s-1.92 -1.16 -3.48 -1.16 l-5.32 0 l0 8.36 z M133.364 40 l0 -31.2 l8 0 l0 31.2 l-8 0 z"></path>
    </g>
    <g id="SvgjsG9332" featurekey="sloganFeature-0" transform="matrix(1.3824750779629673,0,0,1.3824750779629673,127.89401992114924,73.3318595635653)" fill="#ff9200">
        <path d="M0.8 20 l0 -15.6 l6.88 0 c1.96 0 3.48 0.5 4.54 1.5 c1.06 1.02 1.58 2.28 1.58 3.74 c0 1.54 -0.52 2.82 -1.58 3.82 s-2.56 1.52 -4.54 1.52 l-2.88 0 l0 5.02 l-4 0 z M4.8 11.78 l2.66 0 c1.54 0 2.3 -0.7 2.3 -2.12 c0 -0.6 -0.18 -1.08 -0.56 -1.48 s-0.96 -0.58 -1.74 -0.58 l-2.66 0 l0 4.18 z M17.7325 20 l0 -15.6 l4 0 l0 15.6 l-4 0 z M25.665000000000003 15.36 l0 -3.74 l6.06 0 l0 3.74 l-6.06 0 z M43.9375 20.3 c-2.26 0 -4.2 -0.8 -5.82 -2.38 c-1.64 -1.58 -2.46 -3.5 -2.46 -5.72 s0.82 -4.14 2.46 -5.72 c1.62 -1.58 3.56 -2.38 5.82 -2.38 c2.28 0 4.24 0.8 5.86 2.38 c1.22 1.18 1.98 2.56 2.26 4.1 l-4.18 0 c-0.2 -0.52 -0.52 -1 -0.92 -1.4 c-0.82 -0.82 -1.82 -1.22 -3.02 -1.22 c-1.18 0 -2.18 0.42 -3 1.24 s-1.24 1.82 -1.24 3 s0.42 2.18 1.24 3 s1.82 1.24 3 1.24 c1.2 0 2.2 -0.42 3.02 -1.24 c0.56 -0.56 0.92 -1.18 1.1 -1.92 l4.08 0 c-0.22 1.78 -0.98 3.32 -2.34 4.64 c-1.62 1.58 -3.58 2.38 -5.86 2.38 z M56.07 20 l6.32 -15.6 l3.96 0 l6.3 15.6 l-4.36 0 l-1.26 -3.48 l-5.3 0 l-1.3 3.48 l-4.36 0 z M62.970000000000006 13.280000000000001 l2.78 -0.02 l-1.38 -3.74 z M76.5825 20 l0 -15.6 l3.98 0 l0 11.74 l7.48 0 l0 3.86 l-11.46 0 z M100.255 20.3 c-2.26 0 -4.2 -0.8 -5.82 -2.38 c-1.64 -1.58 -2.46 -3.5 -2.46 -5.72 s0.82 -4.14 2.46 -5.72 c1.62 -1.58 3.56 -2.38 5.82 -2.38 c2.28 0 4.24 0.8 5.86 2.38 c1.22 1.18 1.98 2.56 2.26 4.1 l-4.18 0 c-0.2 -0.52 -0.52 -1 -0.92 -1.4 c-0.82 -0.82 -1.82 -1.22 -3.02 -1.22 c-1.18 0 -2.18 0.42 -3 1.24 s-1.24 1.82 -1.24 3 s0.42 2.18 1.24 3 s1.82 1.24 3 1.24 c1.2 0 2.2 -0.42 3.02 -1.24 c0.56 -0.56 0.92 -1.18 1.1 -1.92 l4.08 0 c-0.22 1.78 -0.98 3.32 -2.34 4.64 c-1.62 1.58 -3.58 2.38 -5.86 2.38 z M119.5475 20 c-2.26 0 -4.02 -0.64 -5.28 -1.96 c-1.26 -1.3 -1.88 -2.96 -1.88 -5.02 l0 -8.62 l4 0 l0 8.38 c0 1.12 0.26 1.96 0.8 2.54 c0.54 0.6 1.32 0.9 2.36 0.9 s1.84 -0.3 2.38 -0.9 c0.54 -0.58 0.82 -1.42 0.82 -2.54 l0 -8.38 l3.98 0 l0 8.62 c0 2.04 -0.64 3.7 -1.9 5.02 s-3.02 1.96 -5.28 1.96 z M130.66000000000003 20 l0 -15.6 l3.98 0 l0 11.74 l7.48 0 l0 3.86 l-11.46 0 z M153.21250000000003 20 c-2.26 0 -4.02 -0.64 -5.28 -1.96 c-1.26 -1.3 -1.88 -2.96 -1.88 -5.02 l0 -8.62 l4 0 l0 8.38 c0 1.12 0.26 1.96 0.8 2.54 c0.54 0.6 1.32 0.9 2.36 0.9 s1.84 -0.3 2.38 -0.9 c0.54 -0.58 0.82 -1.42 0.82 -2.54 l0 -8.38 l3.98 0 l0 8.62 c0 2.04 -0.64 3.7 -1.9 5.02 s-3.02 1.96 -5.28 1.96 z M170.96500000000003 20.3 c-1.94 0 -3.52 -0.42 -4.76 -1.28 s-1.86 -2.02 -1.86 -3.52 l0 -0.18 l-0.02 -0.8 l3.92 0 l0 0.9 c0 0.34 0.24 0.66 0.7 0.96 s1.1 0.46 1.94 0.46 c0.7 0 1.2 -0.1 1.52 -0.28 c0.3 -0.18 0.46 -0.42 0.46 -0.68 c0 -0.32 -0.2 -0.6 -0.58 -0.84 c-0.4 -0.24 -1.1 -0.52 -2.08 -0.86 c-0.62 -0.22 -1.14 -0.4 -1.56 -0.56 s-0.92 -0.4 -1.5 -0.72 c-0.58 -0.3 -1.06 -0.64 -1.4 -0.98 s-0.64 -0.76 -0.9 -1.28 s-0.38 -1.08 -0.38 -1.7 c0 -1.46 0.56 -2.64 1.7 -3.52 s2.6 -1.32 4.4 -1.32 c1.86 0 3.38 0.46 4.58 1.38 s1.8 2.14 1.8 3.66 l0 0.98 l-3.9 0 l0 -0.9 c0 -0.42 -0.2 -0.82 -0.62 -1.16 s-1.02 -0.5 -1.78 -0.5 c-0.62 0 -1.1 0.1 -1.42 0.3 c-0.32 0.22 -0.48 0.46 -0.48 0.76 s0.18 0.54 0.54 0.74 c0.36 0.22 1.04 0.5 2.04 0.84 l1.02 0.36 l1.08 0.44 c0.46 0.22 0.84 0.4 1.12 0.58 s0.6 0.42 0.98 0.72 s0.66 0.62 0.88 0.92 c0.2 0.3 0.38 0.68 0.54 1.1 c0.14 0.42 0.22 0.88 0.22 1.34 c0 1.48 -0.58 2.62 -1.72 3.42 c-1.14 0.82 -2.64 1.22 -4.48 1.22 z"></path>
    </g>
</svg>
