<svg xmlns="http://www.w3.org/2000/svg"
    xmlns:xlink="http://www.w3.org/1999/xlink" aria-hidden="true" role="img" width="76.89317509747714" height="76.89317509747714" viewBox="0 0 111.90973481247154 111.90973481247154" class="looka-1j8o68f">
    <defs id="SvgjsDefs9328">
        <linearGradient id="SvgjsLinearGradient9337">
            <stop id="SvgjsStop9338" stop-color="#ef4136" offset="0"></stop>
            <stop id="SvgjsStop9339" stop-color="#fbb040" offset="1"></stop>
        </linearGradient>
    </defs>
    <g id="SvgjsG9329" featurekey="symbolContainer" transform="matrix(1.9899188038835454,0,0,1.9899188038835454,0.000014641918375989454,0.008305016933000434)" fill="url(#SvgjsLinearGradient9337)">
        <path xmlns="http://www.w3.org/2000/svg" d="M23.11 55.78L1.69 43.41A3.39 3.39 0 0 1 0 40.48V15.75a3.39 3.39 0 0 1 1.69-2.94L23.11.45a3.39 3.39 0 0 1 3.39 0l21.41 12.37a3.39 3.39 0 0 1 1.69 2.94v24.72a3.39 3.39 0 0 1-1.69 2.94L26.5 55.78a3.39 3.39 0 0 1-3.39 0z"></path>
    </g>
    <g id="SvgjsG9330" featurekey="symbolFeature-0" transform="matrix(1.02523569698099,0,0,1.02523569698099,1.8761026219844466,7.401948825072068)" fill="#000000">
        <path xmlns="http://www.w3.org/2000/svg" d="M41.497,83.816h-8.908c0,0-2.202-5.645-3.444-17.814c-1.188-11.639-1.188-26.84-1.188-26.84s0.725-1.937,1.667-1.896  s1.064,2.015,1.064,2.015s-2.11,12.523,2.494,31.71C35.321,79.897,41.497,83.816,41.497,83.816z"></path>
        <path xmlns="http://www.w3.org/2000/svg" d="M64.312,41.977c0-1.836-7.416-12.487-15.843-12.487c-8.429,0-17.53,8.093-17.53,8.093s6.892-2.494,15.32-2.494  S64.312,43.814,64.312,41.977z"></path>
        <path xmlns="http://www.w3.org/2000/svg" d="M61.24,22.38c-0.996-1.543-13-6.478-20.083-1.913c-7.085,4.567-10.35,16.3-10.35,16.3s4.441-5.83,11.526-10.396  C49.418,21.805,62.234,23.924,61.24,22.38z"></path>
        <path xmlns="http://www.w3.org/2000/svg" d="M50.55,11.682c-1.561-0.956-14.317-0.459-18.523,6.409c-4.207,6.869-1.87,18.5-1.87,18.5s1.32-6.915,5.527-13.784  C39.89,15.939,52.111,12.639,50.55,11.682z"></path>
        <path xmlns="http://www.w3.org/2000/svg" d="M1.027,48.326C0.634,46.772,4.625,36.17,11.754,34.363c7.132-1.808,16.568,3.088,16.568,3.088s-6.366-0.633-13.498,1.175  C7.693,40.433,1.421,49.88,1.027,48.326z"></path>
        <path xmlns="http://www.w3.org/2000/svg" d="M0.139,31.186c0.512-1.52,9.61-8.269,16.582-5.925c6.974,2.345,12.253,11.572,12.253,11.572s-5.008-3.981-11.982-6.325  C10.019,28.164-0.372,32.705,0.139,31.186z"></path>
        <path xmlns="http://www.w3.org/2000/svg" d="M7.659,19.351c1.099-1.23,11.695-3.846,16.491,1.292c4.796,5.139,5.131,16.112,5.131,16.112s-2.429-5.874-7.226-11.013  C17.258,20.604,6.559,20.582,7.659,19.351z"></path>
        <path xmlns="http://www.w3.org/2000/svg" d="M58.333,83.573l7.063,0.243c0,0,1.9-4.416,3.218-14.033c1.26-9.196,1.675-21.251,1.675-21.251s-0.521-1.556-1.271-1.549  s-0.898,1.569-0.898,1.569s1.332,9.988-2.845,25.077C63.338,80.634,58.333,83.573,58.333,83.573z"></path>
        <path xmlns="http://www.w3.org/2000/svg" d="M41.497,48.591c0.05-1.456,6.222-9.7,12.904-9.469c6.686,0.23,13.681,6.896,13.681,6.896S62.684,43.852,56,43.622  S41.446,50.047,41.497,48.591z"></path>
        <path xmlns="http://www.w3.org/2000/svg" d="M49.19,27.492c1.129-0.915,11.213-1.854,15.239,3.109c4.024,4.965,3.398,14.357,3.398,14.357s-1.759-5.302-5.785-10.266  C58.019,29.729,48.062,28.407,49.19,27.492z"></path>
        <path xmlns="http://www.w3.org/2000/svg" d="M90.995,55.353c0.354-1.222-2.521-9.738-8.125-11.366c-5.606-1.628-13.223,1.996-13.223,1.996s5.065-0.328,10.672,1.3  C85.925,48.911,90.64,56.573,90.995,55.353z"></path>
        <path xmlns="http://www.w3.org/2000/svg" d="M92.168,41.785c-0.364-1.219-7.395-6.82-12.987-5.151c-5.595,1.668-10.033,8.842-10.033,8.842s4.081-3.02,9.675-4.688  S92.53,43.003,92.168,41.785z"></path>
        <path xmlns="http://www.w3.org/2000/svg" d="M86.528,32.194c-0.838-1.005-9.169-3.369-13.112,0.575c-3.943,3.944-4.51,12.637-4.51,12.637s2.087-4.591,6.031-8.536  C78.882,32.926,87.366,33.201,86.528,32.194z"></path>
    </g>
</svg>
